{
    "asset" : {
        "generator" : "Khronos glTF Blender I/O v3.2.43",
        "version" : "2.0"
    },
    "scene" : 0,
    "scenes" : [
        {
            "name" : "Scene",
            "nodes" : [
                6
            ]
        }
    ],
    "nodes" : [
        {
            "mesh" : 0,
            "name" : "Body_High_lambert2_0"
        },
        {
            "children" : [
                0
            ],
            "name" : "Body_High"
        },
        {
            "mesh" : 1,
            "name" : "Cola_High_lambert2_0"
        },
        {
            "children" : [
                2
            ],
            "name" : "Cola_High",
            "rotation" : [
                -0.058645255863666534,
                0,
                0,
                0.9982788562774658
            ],
            "translation" : [
                0,
                0.8891956210136414,
                0.4712072014808655
            ]
        },
        {
            "children" : [
                1,
                3
            ],
            "name" : "RootNode"
        },
        {
            "children" : [
                4
            ],
            "name" : "Sparrow_Low.fbx",
            "rotation" : [
                0.7071068286895752,
                0,
                0,
                0.7071067094802856
            ]
        },
        {
            "children" : [
                5
            ],
            "name" : "Sketchfab_model",
            "rotation" : [
                -0.7071068286895752,
                0,
                0,
                0.7071067094802856
            ],
            "scale" : [
                0.01133046392351389,
                0.011330464854836464,
                0.011330464854836464
            ]
        }
    ],
    "materials" : [
        {
            "doubleSided" : true,
            "name" : "lambert2",
            "normalTexture" : {
                "index" : 0
            },
            "pbrMetallicRoughness" : {
                "baseColorTexture" : {
                    "index" : 1
                },
                "metallicRoughnessTexture" : {
                    "index" : 2
                }
            }
        }
    ],
    "meshes" : [
        {
            "name" : "Body_High_lambert2_0",
            "primitives" : [
                {
                    "attributes" : {
                        "POSITION" : 0,
                        "NORMAL" : 1,
                        "TEXCOORD_0" : 2
                    },
                    "indices" : 3,
                    "material" : 0
                }
            ]
        },
        {
            "name" : "Cola_High_lambert2_0",
            "primitives" : [
                {
                    "attributes" : {
                        "POSITION" : 4,
                        "NORMAL" : 5,
                        "TEXCOORD_0" : 6
                    },
                    "indices" : 7,
                    "material" : 0
                }
            ]
        }
    ],
    "textures" : [
        {
            "sampler" : 0,
            "source" : 0
        },
        {
            "sampler" : 0,
            "source" : 1
        },
        {
            "sampler" : 0,
            "source" : 2
        }
    ],
    "images" : [
        {
            "mimeType" : "image/png",
            "name" : "lambert2_normal",
            "uri" : "textures/lambert2_normal.png"
        },
        {
            "mimeType" : "image/png",
            "name" : "lambert2_baseColor",
            "uri" : "textures/lambert2_baseColor.png"
        },
        {
            "mimeType" : "image/png",
            "name" : "lambert2_metallicRoughness",
            "uri" : "textures/lambert2_metallicRoughness.png"
        }
    ],
    "accessors" : [
        {
            "bufferView" : 0,
            "componentType" : 5126,
            "count" : 3558,
            "max" : [
                13.97799301147461,
                8.502079963684082,
                6.556307792663574
            ],
            "min" : [
                -13.97799301147461,
                1.5713045597076416,
                -3.3374083042144775
            ],
            "type" : "VEC3"
        },
        {
            "bufferView" : 1,
            "componentType" : 5126,
            "count" : 3558,
            "type" : "VEC3"
        },
        {
            "bufferView" : 2,
            "componentType" : 5126,
            "count" : 3558,
            "type" : "VEC2"
        },
        {
            "bufferView" : 3,
            "componentType" : 5123,
            "count" : 4992,
            "type" : "SCALAR"
        },
        {
            "bufferView" : 4,
            "componentType" : 5126,
            "count" : 574,
            "max" : [
                2.1716160774230957,
                3.814877510070801,
                -2.5035128593444824
            ],
            "min" : [
                -2.1716160774230957,
                3.1547398567199707,
                -9.041783332824707
            ],
            "type" : "VEC3"
        },
        {
            "bufferView" : 5,
            "componentType" : 5126,
            "count" : 574,
            "type" : "VEC3"
        },
        {
            "bufferView" : 6,
            "componentType" : 5126,
            "count" : 574,
            "type" : "VEC2"
        },
        {
            "bufferView" : 7,
            "componentType" : 5123,
            "count" : 804,
            "type" : "SCALAR"
        }
    ],
    "bufferViews" : [
        {
            "buffer" : 0,
            "byteLength" : 42696,
            "byteOffset" : 0
        },
        {
            "buffer" : 0,
            "byteLength" : 42696,
            "byteOffset" : 42696
        },
        {
            "buffer" : 0,
            "byteLength" : 28464,
            "byteOffset" : 85392
        },
        {
            "buffer" : 0,
            "byteLength" : 9984,
            "byteOffset" : 113856
        },
        {
            "buffer" : 0,
            "byteLength" : 6888,
            "byteOffset" : 123840
        },
        {
            "buffer" : 0,
            "byteLength" : 6888,
            "byteOffset" : 130728
        },
        {
            "buffer" : 0,
            "byteLength" : 4592,
            "byteOffset" : 137616
        },
        {
            "buffer" : 0,
            "byteLength" : 1608,
            "byteOffset" : 142208
        }
    ],
    "samplers" : [
        {
            "magFilter" : 9729,
            "minFilter" : 9987
        }
    ],
    "buffers" : [
        {
            "byteLength" : 143816,
            "uri" : "scene.bin"
        }
    ]
}
